<?xml version="1.0" standalone="no"?>
<!DOCTYPE svg PUBLIC "-//W3C//DTD SVG 20010904//EN"
 "http://www.w3.org/TR/2001/REC-SVG-20010904/DTD/svg10.dtd">
<svg version="1.0" xmlns="http://www.w3.org/2000/svg"
 width="518.000000pt" height="518.000000pt" viewBox="0 0 518.000000 518.000000"
 preserveAspectRatio="xMidYMid meet">
<metadata>
Created by potrace 1.11, written by Peter Selinger 2001-2013
</metadata>
<g transform="translate(0.000000,518.000000) scale(0.100000,-0.100000)"
fill="#000000" stroke="none">
<path d="M788 5165 c-3 -3 -14 -7 -24 -9 -40 -8 -79 -19 -89 -25 -5 -3 -15 -6
-22 -7 -23 -4 -181 -85 -193 -99 -7 -8 -17 -15 -23 -15 -14 0 -125 -96 -177
-155 -25 -27 -48 -51 -52 -53 -5 -2 -8 -10 -8 -17 0 -7 -7 -16 -16 -19 -8 -3
-12 -10 -9 -16 3 -5 2 -10 -3 -10 -15 0 -87 -146 -118 -240 l-29 -85 0 -1842
c0 -1460 3 -1845 13 -1855 6 -6 12 -19 12 -27 0 -22 50 -153 66 -171 7 -8 12
-17 11 -20 -3 -16 104 -158 170 -224 110 -109 270 -209 388 -241 17 -5 33 -9
38 -10 4 -2 8 -3 10 -5 15 -12 288 -14 1854 -17 l1813 -2 97 33 c322 108 548
339 648 661 l25 80 0 1809 c0 1334 -3 1819 -11 1845 -7 20 -14 43 -17 51 -3 8
-7 23 -9 33 -2 10 -19 53 -39 95 -120 260 -342 451 -633 542 -63 20 -89 20
-1866 20 -991 0 -1804 -3 -1807 -5z m1624 -1215 c20 0 26 -4 23 -18 -3 -15 -6
-56 -21 -262 -2 -25 -6 -81 -8 -125 -3 -44 -6 -80 -7 -80 0 0 -2 -16 -4 -35
-1 -19 -5 -71 -9 -115 -12 -133 -16 -186 -20 -283 -3 -50 -7 -96 -11 -101 -3
-5 -1 -12 5 -16 6 -4 38 15 73 41 80 61 221 127 322 151 119 29 327 28 420 -1
6 -2 25 -7 43 -11 18 -4 35 -12 38 -16 3 -5 14 -9 25 -9 10 0 19 -4 19 -10 0
-5 7 -10 15 -10 22 0 109 -76 160 -141 19 -23 59 -95 61 -108 0 -3 6 -19 13
-36 7 -16 19 -59 27 -95 8 -36 18 -76 23 -90 6 -21 7 -365 1 -365 -2 0 -4 -29
-13 -170 -3 -44 -9 -116 -13 -160 -4 -44 -8 -104 -8 -132 -1 -29 -3 -53 -6
-53 -3 0 -5 -19 -6 -43 -1 -41 -9 -153 -19 -252 -7 -70 -15 -173 -18 -217 -1
-20 -6 -40 -9 -44 -6 -5 -583 -9 -666 -5 -10 1 -12 16 -7 69 13 136 15 158 20
222 3 36 7 90 10 120 3 30 7 87 10 125 3 39 7 99 10 135 3 36 7 101 10 145 2
44 5 80 5 80 4 0 14 201 14 290 0 88 -3 106 -25 150 -27 53 -94 109 -144 121
-55 12 -150 8 -210 -11 -48 -15 -72 -31 -118 -77 -32 -33 -55 -63 -52 -68 3
-4 -1 -15 -9 -22 -27 -27 -43 -109 -61 -308 -13 -147 -17 -185 -30 -358 -3
-42 -8 -99 -10 -127 -3 -27 -8 -86 -10 -130 -3 -44 -7 -96 -9 -115 -8 -64 -19
-195 -18 -212 0 -10 -4 -21 -10 -24 -6 -4 -160 -7 -342 -7 l-331 0 1 44 c1 24
5 82 9 129 4 47 9 105 10 130 2 25 6 77 9 115 16 189 26 310 31 385 2 30 7 91
11 135 4 44 8 104 8 132 1 29 3 53 6 53 3 0 6 19 6 43 2 57 13 242 15 242 1 0
3 14 4 30 1 17 5 68 9 115 3 47 8 108 11 135 3 28 7 82 10 120 3 39 7 97 10
130 2 33 7 94 10 135 3 41 7 98 9 125 3 28 7 88 11 135 4 46 9 88 11 92 3 4 0
8 -6 8 -6 0 -8 5 -3 13 4 6 8 21 9 32 1 20 14 174 19 230 2 17 3 47 4 67 l1
37 73 3 c59 2 192 2 589 -2z"/>
</g>
</svg>
